<?xml version="1.0" standalone="no"?>
<!DOCTYPE svg PUBLIC "-//W3C//DTD SVG 20010904//EN"
 "http://www.w3.org/TR/2001/REC-SVG-20010904/DTD/svg10.dtd">
<svg version="1.0" xmlns="http://www.w3.org/2000/svg"
 width="1024.000000pt" height="1024.000000pt" viewBox="0 0 1024.000000 1024.000000"
 preserveAspectRatio="xMidYMid meet">

<g transform="translate(0.000000,1024.000000) scale(0.100000,-0.100000)"
fill="#000000" stroke="none">
<path d="M4860 9140 c-361 -17 -663 -75 -1037 -199 -204 -67 -342 -124 -533
-222 -156 -79 -430 -252 -568 -360 -211 -164 -253 -200 -403 -349 -396 -395
-719 -887 -914 -1395 -190 -492 -259 -846 -272 -1375 -11 -488 47 -890 191
-1330 206 -630 554 -1186 1037 -1656 197 -192 335 -305 524 -429 489 -320 977
-524 1485 -619 222 -41 308 -52 545 -67 439 -27 971 47 1413 195 456 154 992
456 1347 759 403 345 813 877 1022 1326 263 565 379 1062 390 1671 6 299 -6
459 -52 735 -115 684 -461 1406 -941 1965 -228 265 -477 479 -834 717 -110 73
-441 262 -507 289 -21 9 -56 24 -78 34 -162 73 -463 174 -660 220 -286 68
-790 107 -1155 90z m750 -170 c332 -44 603 -112 885 -223 190 -74 550 -262
562 -292 4 -13 -65 -130 -193 -326 -174 -268 -213 -328 -243 -379 -18 -30 -67
-112 -109 -181 -42 -69 -108 -176 -146 -238 -38 -62 -83 -135 -100 -162 -105
-163 -300 -483 -549 -899 -130 -217 -246 -405 -257 -418 l-19 -23 -43 24 c-24
14 -77 37 -118 52 -164 60 -408 38 -524 -46 -22 -16 -45 -29 -51 -29 -16 0
-165 228 -324 499 -56 96 -128 215 -160 265 -32 50 -88 141 -124 201 -37 61
-105 169 -151 240 -47 72 -124 195 -172 275 -49 80 -147 240 -220 355 -121
193 -171 272 -398 626 -43 67 -79 129 -80 137 -2 23 333 201 544 290 322 136
760 241 1131 272 184 15 683 4 859 -20z m1619 -618 c20 -16 88 -64 151 -107
245 -167 448 -355 654 -605 118 -143 268 -342 262 -347 -2 -2 -365 -5 -807 -7
-905 -3 -832 4 -908 -82 -22 -26 -46 -65 -52 -88 -8 -28 -10 -239 -7 -691 l3
-650 23 -50 c31 -68 66 -102 137 -136 l60 -29 735 0 735 0 50 24 c53 24 112
82 141 138 16 30 17 84 16 691 -1 379 2 657 7 657 15 0 195 -369 243 -500 26
-69 60 -161 76 -206 99 -268 180 -678 199 -1001 l6 -113 -179 0 c-162 0 -296
-8 -426 -26 -29 -3 -58 -15 -75 -30 -53 -47 -82 -57 -125 -45 -43 13 -58 39
-58 97 0 45 -23 54 -138 54 -63 0 -97 -5 -122 -18 -32 -15 -35 -21 -38 -65 -3
-47 -5 -49 -48 -68 -25 -10 -54 -19 -65 -19 -22 0 -34 37 -25 74 11 45 -17 46
-972 46 l-889 0 -7 67 c-14 133 -166 423 -222 423 -26 0 -15 26 62 146 42 65
134 214 204 329 349 576 499 821 549 895 21 30 74 116 118 190 44 74 112 185
150 245 38 61 96 153 128 205 33 52 127 199 210 325 83 127 161 247 174 268
12 20 25 37 28 37 3 0 22 -13 42 -28z m-4225 -61 c98 -149 481 -757 517 -821
39 -69 144 -236 278 -443 67 -103 140 -218 162 -255 160 -260 300 -489 341
-557 64 -107 117 -191 214 -339 l80 -123 -39 -49 c-92 -114 -147 -243 -156
-364 l-6 -85 -1560 0 -1560 0 3 80 c28 694 247 1382 610 1915 182 267 326 444
522 641 107 108 233 228 280 266 203 165 251 203 259 203 5 0 30 -31 55 -69z
m5255 -1156 c16 -17 20 -38 23 -126 l3 -107 -385 2 c-212 0 -504 0 -650 -2
-146 -2 -343 -3 -437 -3 l-173 1 0 93 c0 89 1 94 28 119 15 14 36 30 47 36 13
7 266 10 772 9 738 -2 753 -3 772 -22z m-37 -355 l79 0 -3 -502 c-3 -485 -4
-504 -23 -530 -49 -65 -5 -61 -806 -65 l-728 -4 -40 36 c-37 34 -70 99 -57
112 14 15 210 24 379 19 l187 -7 0 395 0 395 -22 7 c-12 3 -110 5 -217 4 -108
-2 -226 -3 -263 -2 l-68 2 0 70 0 70 543 3 c298 2 636 2 751 0 115 -1 245 -3
288 -3z m-1127 -372 c0 -99 -2 -107 -20 -112 -11 -3 -112 -3 -223 1 -159 5
-205 9 -209 20 -3 7 -2 55 2 107 l7 93 221 -1 221 -1 1 -107z m2 -325 c-4 -68
-11 -109 -19 -114 -6 -4 -108 -8 -225 -9 l-213 -1 0 110 c0 96 2 110 18 114 9
3 113 5 231 6 l214 1 -6 -107z m-1913 -297 c-11 -74 -2 -88 68 -115 l62 -24
36 42 36 41 34 -36 c19 -19 54 -48 77 -63 l42 -28 -46 -58 -45 -57 17 -39 c29
-64 44 -72 127 -68 l73 4 -2 -114 c-1 -62 -3 -115 -5 -117 -2 -2 -42 -4 -89
-6 -46 -1 -76 -3 -66 -6 9 -2 17 -6 17 -8 0 -9 -34 -59 -48 -71 -16 -14 -5
-42 35 -85 31 -32 28 -38 -60 -118 l-67 -62 -38 42 -37 43 -70 -24 c-76 -26
-75 -25 -62 -101 l6 -38 -95 0 -94 0 0 49 c0 48 -1 50 -42 70 -82 39 -95 38
-137 -8 l-37 -40 -72 73 c-40 40 -72 78 -72 83 0 5 20 28 45 51 l45 41 -16 43
c-27 69 -35 73 -119 70 l-75 -3 0 111 0 110 43 0 c68 0 84 9 123 65 l36 54
-20 28 c-11 15 -29 37 -41 47 -31 28 -26 47 19 79 22 16 52 43 67 61 l26 33
38 -38 c45 -45 58 -47 134 -18 l55 20 0 59 0 59 58 4 c31 2 76 4 99 5 l43 2
-6 -44z m2816 -668 c0 -29 4 -58 8 -64 8 -13 155 -74 178 -74 7 0 21 11 30 25
20 31 41 32 71 3 28 -26 29 -44 3 -83 -23 -34 -20 -66 12 -128 21 -42 50 -57
108 -57 42 0 40 3 55 -73 7 -38 -5 -47 -64 -47 -32 0 -64 -6 -73 -12 -14 -12
-58 -146 -58 -178 0 -8 11 -28 25 -44 31 -36 31 -40 -1 -65 -35 -28 -45 -27
-79 9 l-28 29 -28 -19 c-15 -11 -57 -33 -93 -50 l-66 -29 0 -56 0 -56 -57 3
c-53 3 -58 5 -55 25 2 12 -4 37 -12 57 -12 29 -29 42 -96 76 -90 45 -80 46
-138 -7 -7 -7 -17 -13 -21 -13 -10 0 -46 40 -61 68 -10 20 -9 27 9 46 12 12
21 34 21 47 0 31 -28 129 -42 146 -5 7 -36 15 -68 19 -57 6 -58 7 -64 43 -13
78 -11 81 45 81 66 0 84 11 113 68 39 77 39 86 10 121 l-26 31 22 35 c12 19
24 35 26 35 3 0 22 -11 42 -25 46 -32 55 -31 135 5 77 35 97 59 97 117 l0 43
60 0 60 0 0 -52z m729 -19 c24 -11 52 -19 63 -19 10 0 17 -4 14 -9 -9 -13 42
-23 62 -12 11 7 12 11 4 11 -7 0 -10 5 -7 10 4 6 11 8 16 5 5 -4 9 0 9 9 0 8
-6 17 -12 19 -7 3 5 5 27 5 22 0 34 -2 28 -5 -16 -6 -17 -33 -1 -33 23 0 -17
-475 -43 -506 -6 -8 -7 -14 -2 -14 10 0 -31 -218 -71 -378 -42 -164 -121 -406
-167 -508 -10 -22 -27 -64 -39 -94 -29 -74 -167 -340 -191 -370 -12 -14 -17
-19 -13 -11 4 9 3 12 -4 7 -6 -4 -9 -13 -6 -21 6 -16 -33 -78 -45 -71 -11 7
-36 -12 -28 -21 5 -4 12 -1 17 7 6 8 10 10 10 5 0 -10 -68 -116 -80 -125 -4
-3 -13 -16 -20 -30 -23 -43 -150 -209 -244 -319 -123 -144 -143 -164 -155
-156 -6 3 -9 0 -5 -8 6 -16 -210 -223 -232 -221 -7 1 -12 -2 -9 -6 9 -15 -231
-211 -332 -273 -7 -4 -42 43 -97 132 -47 77 -86 142 -86 145 0 3 -19 36 -42
73 -22 38 -49 82 -58 98 -37 63 -225 384 -273 465 -28 47 -97 156 -154 242
-57 87 -103 162 -103 167 0 5 -4 11 -10 13 -16 6 -170 269 -163 281 3 5 1 7
-4 4 -14 -9 -56 61 -49 80 3 8 2 11 -4 8 -8 -5 -102 123 -118 163 -13 32 -92
161 -156 254 -89 131 -179 279 -179 294 0 7 -4 12 -8 11 -12 -3 -100 137 -94
151 2 7 1 11 -4 8 -4 -3 -31 29 -58 72 -82 126 -80 117 -38 165 19 23 54 70
76 105 22 34 45 62 50 62 4 0 5 7 2 17 -4 10 -2 14 4 10 6 -4 10 -1 10 6 -2
18 34 97 44 97 5 0 6 7 3 15 -5 13 51 15 474 15 265 0 483 -4 486 -8 2 -4 -12
-6 -32 -4 -33 3 -35 2 -17 -9 18 -12 84 -14 233 -10 39 1 52 5 52 16 0 13 39
15 295 15 175 0 295 -4 295 -9 0 -5 -10 -18 -23 -28 -38 -30 -87 -104 -87
-133 0 -14 7 -35 15 -46 19 -25 19 -34 -2 -35 -16 0 -15 -1 1 -8 18 -7 18 -8
-5 -14 -13 -4 -45 -7 -70 -7 -69 0 -89 -21 -96 -98 -6 -69 12 -176 34 -198 9
-8 34 -14 62 -14 l48 0 12 -57 c7 -38 8 -60 1 -67 -13 -13 -13 -29 0 -21 6 3
10 1 10 -4 0 -12 -11 -14 -34 -5 -9 3 -13 11 -9 17 3 6 1 7 -5 3 -7 -4 -31 4
-54 18 -77 44 -134 57 -267 60 -151 4 -227 -12 -350 -73 -128 -65 -230 -178
-301 -335 -43 -95 -60 -168 -60 -261 0 -174 75 -338 229 -505 155 -167 225
-217 336 -240 146 -31 348 -11 470 46 70 33 185 123 205 161 9 17 24 43 34 57
9 15 14 31 11 36 -3 6 -1 10 4 10 6 0 11 5 11 11 0 6 7 17 15 26 9 9 13 23 10
34 -4 13 0 26 13 37 20 17 42 71 42 101 0 14 -2 14 -10 1 -7 -11 -9 -2 -4 30
4 33 3 41 -5 30 -7 -11 -9 19 -4 102 7 140 -3 199 -57 333 -22 54 -39 99 -38
99 23 13 64 26 83 26 35 0 65 -37 65 -80 0 -44 42 -90 82 -90 15 0 29 -4 32
-9 11 -17 72 -21 144 -10 39 6 72 16 72 20 0 5 -6 9 -12 10 -10 0 -10 2 0 6 7
3 12 24 12 56 0 81 53 123 96 76 19 -21 51 -22 99 -5 15 6 16 5 6 -2 -8 -6
-11 -17 -7 -27 8 -22 14 -17 18 17 2 15 27 49 61 83 66 66 75 90 55 143 -11
27 -12 48 -6 80 8 36 13 42 34 42 44 0 93 27 100 54 9 39 0 244 -12 256 -5 5
-34 12 -64 15 -29 2 -57 8 -63 14 -16 16 -11 58 11 85 29 38 13 81 -62 163
l-29 32 169 -5 c134 -5 178 -10 213 -25z m-4309 -16 c24 -74 82 -178 141 -251
32 -41 56 -79 52 -86 -20 -35 -156 -256 -213 -346 -37 -58 -88 -141 -115 -185
-116 -193 -198 -329 -274 -458 -175 -294 -320 -530 -367 -597 -51 -71 -145
-228 -377 -625 -39 -66 -83 -140 -98 -165 -15 -25 -53 -88 -85 -140 -31 -52
-81 -135 -112 -183 l-55 -88 -36 34 c-20 19 -63 52 -96 74 -114 77 -364 310
-518 486 -108 122 -297 370 -379 497 -213 331 -397 750 -483 1101 -14 57 -32
129 -40 159 -39 151 -70 388 -80 615 -3 77 -8 152 -11 168 l-6 27 1570 0 1570
0 12 -37z m1059 -490 c127 -197 178 -279 213 -345 20 -36 79 -131 131 -210 51
-79 118 -183 147 -233 30 -49 106 -171 170 -270 64 -99 145 -225 180 -280 34
-55 90 -142 124 -194 67 -103 135 -219 192 -326 20 -38 83 -144 139 -235 56
-91 151 -248 210 -350 59 -102 118 -199 131 -217 13 -17 24 -36 24 -42 0 -24
-242 -162 -450 -258 -504 -232 -954 -338 -1487 -350 -495 -11 -936 57 -1353
210 -216 79 -566 243 -755 352 -33 19 -64 36 -69 38 -5 2 7 27 26 57 52 81
225 367 308 510 158 273 328 554 435 720 62 96 207 334 324 529 116 194 224
372 240 395 15 22 79 124 141 226 149 245 228 360 249 360 22 0 117 -36 166
-62 34 -19 56 -22 150 -22 119 -1 203 19 295 69 25 13 47 24 50 25 3 0 34 -44
69 -97z m1506 -516 c0 -147 0 -267 0 -267 -79 19 -186 32 -317 37 -192 7 -179
-3 -147 113 38 137 145 266 274 329 61 31 161 62 180 57 6 -2 10 -100 10 -269z
m260 231 c146 -48 266 -169 315 -318 28 -85 34 -218 13 -296 -15 -61 -52 -155
-63 -164 -4 -3 -12 -14 -18 -25 -6 -11 -12 -15 -12 -8 0 7 -6 10 -13 7 -8 -3
-20 3 -28 13 -13 16 -12 17 4 4 14 -11 20 -11 33 -1 26 23 37 50 24 65 -9 11
-7 12 8 8 15 -4 21 2 25 24 3 15 1 31 -5 34 -6 4 -7 12 -4 18 4 6 3 11 -2 11
-5 0 -21 -23 -36 -51 -16 -28 -38 -54 -50 -59 -25 -9 -44 -1 -25 11 8 5 10 9
4 10 -5 0 -20 2 -33 3 -22 3 -22 3 -2 -16 11 -10 20 -21 20 -24 0 -13 -69 46
-175 149 l-115 112 0 264 0 263 38 -7 c20 -4 64 -16 97 -27z m-62 -737 c214
-215 208 -200 108 -254 -133 -73 -332 -75 -463 -5 -142 76 -265 218 -308 355
-34 109 -55 100 226 98 l247 -2 190 -192z m307 -5 c0 -3 -4 -8 -10 -11 -5 -3
-10 -1 -10 4 0 6 5 11 10 11 6 0 10 -2 10 -4z"/>
<path d="M4765 8655 c-34 -33 -34 -87 1 -122 21 -21 31 -24 64 -19 l38 6 46
-72 c50 -77 54 -93 31 -102 -9 -3 -22 -20 -29 -37 l-13 -31 -34 47 c-19 26
-61 67 -94 92 -119 90 -215 123 -354 123 -93 0 -132 -13 -159 -54 -121 -178
-80 -474 85 -627 l61 -56 -45 -90 c-43 -85 -45 -95 -45 -174 0 -62 5 -96 20
-129 29 -66 95 -135 159 -166 49 -24 69 -28 147 -29 79 0 99 4 151 28 33 15
81 49 107 74 l46 46 21 -39 c26 -50 50 -79 78 -93 18 -9 25 -6 50 23 15 18 36
48 46 66 l17 32 46 -42 c85 -78 224 -121 319 -100 103 23 184 86 231 177 26
52 29 68 29 154 0 92 -2 99 -40 173 l-39 77 65 62 c111 107 160 218 160 367 0
92 -23 184 -63 254 -30 52 -60 59 -213 54 -134 -4 -179 -19 -292 -96 -56 -38
-127 -108 -135 -134 -3 -7 -17 1 -35 22 l-31 35 25 49 c14 28 37 65 52 83 23
30 31 33 77 33 45 0 52 3 62 25 33 71 -2 135 -72 135 -35 0 -46 -8 -116 -77
-53 -54 -87 -98 -108 -143 -18 -38 -32 -56 -32 -44 0 39 -60 139 -120 202 -54
56 -63 62 -100 62 -30 0 -47 -7 -65 -25z m-194 -261 c101 -30 255 -175 279
-262 5 -20 12 -94 16 -164 l7 -127 -36 -6 c-20 -4 -76 -5 -124 -3 -74 3 -99 8
-155 35 -162 76 -248 220 -236 393 6 80 34 141 69 152 31 9 118 0 180 -18z
m1202 -31 c17 -38 22 -67 22 -143 0 -86 -3 -101 -31 -160 -41 -86 -96 -140
-190 -186 -78 -39 -78 -39 -203 -39 l-126 0 -3 114 c-3 137 11 191 71 275 81
113 222 184 365 185 l73 1 22 -47z m-672 -133 c18 -10 19 -23 19 -193 -1 -412
-36 -657 -78 -550 -23 56 -32 124 -42 314 -15 298 -14 368 10 407 21 34 53 42
91 22z m-376 -533 c33 -1 79 1 103 6 l42 7 0 -53 c0 -29 6 -77 14 -107 13 -50
13 -56 -4 -81 -34 -47 -98 -97 -137 -108 -54 -15 -159 -14 -191 3 -106 56
-132 178 -68 313 l35 72 73 -25 c42 -15 99 -26 133 -27z m903 -29 c44 -84 48
-163 11 -234 -31 -61 -80 -87 -172 -92 -57 -4 -75 0 -121 22 -66 32 -151 119
-141 144 26 60 34 93 35 139 l0 51 118 0 c97 -1 126 3 167 20 28 11 54 20 59
18 6 -1 25 -32 44 -68z"/>
<path d="M6223 8509 c-54 -26 -129 -107 -156 -167 -16 -36 -22 -72 -25 -160
-2 -61 -2 -122 2 -135 7 -29 121 -148 167 -176 32 -19 37 -27 43 -73 3 -29 6
-80 6 -114 0 -55 2 -62 26 -72 29 -14 57 -3 74 28 5 10 10 62 10 114 l0 96 58
29 c74 38 147 113 161 167 8 29 8 65 0 124 -19 158 -76 276 -158 331 -56 37
-142 41 -208 8z m122 -101 c30 -14 66 -84 95 -189 34 -123 26 -153 -53 -210
-51 -37 -100 -39 -146 -4 -68 50 -76 63 -80 147 -2 43 0 94 3 112 13 66 92
156 138 156 9 0 29 -5 43 -12z"/>
<path d="M3691 8489 c-113 -58 -143 -129 -115 -280 16 -86 20 -96 62 -141 24
-26 59 -53 77 -60 19 -6 36 -21 39 -32 3 -12 6 -87 6 -168 0 -120 3 -149 16
-162 21 -21 47 -20 67 2 14 16 17 44 17 184 l0 165 26 12 c94 42 155 135 162
248 4 67 2 79 -27 137 -27 55 -39 68 -79 88 -69 34 -191 37 -251 7z m167 -125
c33 -23 52 -67 52 -119 0 -53 -26 -86 -86 -111 -33 -14 -38 -13 -70 7 -62 38
-80 107 -47 176 26 56 104 80 151 47z"/>
<path d="M3800 8220 c0 -5 5 -10 10 -10 6 0 10 5 10 10 0 6 -4 10 -10 10 -5 0
-10 -4 -10 -10z"/>
<path d="M5031 6964 c-25 -20 -31 -34 -31 -64 0 -31 7 -44 35 -69 20 -17 39
-31 43 -31 17 1 43 30 57 64 24 56 4 103 -51 120 -15 5 -31 -1 -53 -20z"/>
<path d="M5416 6778 c-17 -40 -7 -70 27 -82 38 -14 77 15 77 57 0 42 -15 57
-57 57 -29 0 -36 -5 -47 -32z"/>
<path d="M4640 6769 c-16 -38 -6 -59 35 -74 23 -8 30 -6 51 18 35 41 14 87
-41 87 -27 0 -35 -5 -45 -31z"/>
<path d="M5027 6625 c-24 -23 -22 -86 4 -119 41 -52 98 -22 106 56 5 55 -5 68
-54 75 -29 4 -44 1 -56 -12z"/>
<path d="M5026 6288 c-24 -33 -20 -72 10 -102 34 -34 46 -33 79 6 44 53 19
118 -46 118 -17 0 -34 -8 -43 -22z"/>
<path d="M7073 7635 c-23 -16 -37 -57 -28 -85 7 -23 57 -44 85 -35 30 9 53 49
45 77 -17 55 -59 73 -102 43z"/>
<path d="M7301 7624 c-35 -45 -22 -86 35 -110 29 -12 39 -12 61 -2 45 22 53
106 13 128 -36 20 -87 12 -109 -16z"/>
<path d="M7554 7625 c-34 -51 13 -124 70 -109 45 11 61 69 30 112 -22 32 -78
30 -100 -3z"/>
<path d="M6208 6203 l-48 -4 0 -44 c0 -59 31 -90 67 -67 25 16 58 126 36 120
-5 -1 -29 -3 -55 -5z"/>
<path d="M6162 5928 c-7 -7 -12 -29 -12 -50 0 -44 22 -61 73 -56 55 5 71 78
23 110 -17 12 -71 9 -84 -4z"/>
<path d="M6160 5680 c-42 -42 -13 -100 51 -100 42 0 59 15 59 50 0 31 -8 44
-37 59 -31 16 -50 14 -73 -9z"/>
<path d="M2660 7604 c-75 -14 -90 -32 -90 -106 l0 -38 -94 0 c-103 0 -106 -2
-106 -65 l0 -33 -119 -4 c-133 -3 -146 -9 -205 -82 l-31 -38 0 -470 0 -470 36
-32 c30 -28 46 -34 103 -41 37 -3 336 -5 664 -4 473 2 603 6 624 16 58 28 56
19 62 523 5 508 7 488 -56 546 -51 49 -69 54 -183 54 l-107 0 6 28 c11 48 -11
64 -97 70 l-77 5 0 29 c0 41 -24 82 -57 97 -28 13 -226 24 -273 15z m222 -173
l3 -66 89 -3 88 -3 -6 -47 c-13 -90 18 -82 -302 -82 l-284 0 0 59 0 59 100 7
100 7 0 69 0 68 83 3 c130 5 126 7 129 -71z m-520 -191 c4 0 5 -12 2 -27 -7
-37 14 -63 56 -73 24 -5 -16 -9 -123 -11 l-157 -4 0 57 c0 36 4 58 13 61 6 2
55 2 107 0 52 -1 98 -3 102 -3z m1018 -54 l0 -54 -105 -7 c-57 -4 -126 -4
-152 0 l-48 8 45 11 c39 10 45 16 48 41 5 55 5 55 112 55 l100 0 0 -54z m-98
-172 l105 -7 6 -125 c4 -69 5 -127 4 -129 -2 -1 -27 10 -55 25 l-52 27 -92
-92 c-50 -51 -92 -93 -94 -93 -1 0 -5 14 -9 30 -5 25 -12 30 -34 30 -33 0 -81
-41 -81 -69 0 -17 114 -131 132 -131 4 0 63 56 131 125 69 69 132 125 141 125
14 0 16 -14 16 -92 0 -51 -3 -137 -7 -190 l-6 -98 -627 0 -627 0 -6 74 c-3 40
-3 189 0 330 l6 256 196 3 c444 6 854 7 953 1z"/>
<path d="M2650 6913 c-52 -5 -60 -14 -60 -67 l0 -39 118 7 c189 11 216 23 178
81 -16 24 -21 25 -104 23 -48 -1 -107 -3 -132 -5z"/>
<path d="M2242 6858 c2 -43 6 -53 21 -52 9 0 62 1 118 2 l100 2 -3 48 -3 47
-118 3 -118 3 3 -53z"/>
<path d="M3018 6899 c-11 -6 -18 -22 -18 -38 0 -34 23 -41 130 -41 51 0 73 5
90 18 27 22 20 57 -13 66 -36 9 -171 6 -189 -5z"/>
<path d="M2834 6738 c-17 -18 -45 -52 -63 -75 -18 -24 -38 -43 -45 -43 -7 0
-22 14 -34 30 -30 41 -71 41 -95 1 -9 -16 -17 -36 -17 -44 0 -20 105 -117 127
-117 11 0 34 11 52 24 47 35 201 184 201 195 0 15 -60 61 -79 61 -9 0 -31 -15
-47 -32z"/>
<path d="M2387 6650 l-46 -51 -40 26 c-46 31 -78 27 -87 -11 -9 -34 12 -71 56
-100 61 -42 90 -34 175 47 41 39 75 80 75 90 0 22 -36 49 -65 49 -13 0 -40
-21 -68 -50z"/>
<path d="M1664 6463 c-9 -27 -21 -52 -26 -57 -16 -19 -8 -44 20 -64 l27 -20 1
-443 c0 -420 1 -442 19 -455 41 -31 85 7 85 73 l0 43 229 0 c206 0 231 2 251
18 31 25 39 83 39 286 1 235 26 216 -280 209 l-239 -6 0 132 0 132 50 21 c28
11 50 26 50 32 0 19 -30 56 -45 56 -8 0 -20 10 -26 23 -25 49 -51 67 -95 67
-41 0 -43 -1 -60 -47z m439 -548 c10 -10 14 -28 11 -55 -2 -22 1 -40 6 -40 6
0 10 -26 11 -57 1 -80 17 -40 19 47 2 76 11 112 28 118 9 3 12 -29 12 -131 l0
-134 -168 -7 c-93 -4 -176 -4 -185 0 -15 5 -17 24 -17 140 l0 134 134 0 c105
0 138 -3 149 -15z"/>
<path d="M2410 6031 c-6 -12 -10 -104 -10 -231 0 -211 0 -211 25 -235 l24 -25
220 0 c218 0 220 0 248 24 l28 24 3 215 c3 189 2 216 -13 230 -14 15 -47 17
-265 17 -236 0 -250 -1 -260 -19z m288 -101 l142 0 0 -129 0 -130 -42 -5 c-24
-3 -98 -7 -165 -10 l-123 -5 0 146 0 145 23 -6 c12 -3 86 -6 165 -6z"/>
<path d="M2783 5805 c0 -22 2 -30 4 -17 2 12 2 30 0 40 -3 9 -5 -1 -4 -23z"/>
<path d="M3059 6018 c-19 -31 -20 -46 -17 -231 l3 -199 28 -24 c28 -24 30 -24
246 -24 200 0 221 2 242 19 24 19 24 22 27 235 2 142 -1 222 -8 236 -10 19
-19 20 -255 20 l-245 0 -21 -32z m354 -205 c-6 -104 -4 -115 13 -127 17 -13
15 -15 -26 -20 -25 -3 -89 -8 -142 -11 l-98 -6 0 140 0 140 130 -1 129 -2 -6
-113z m61 36 c5 -67 -2 -109 -19 -109 -10 0 -12 17 -9 66 3 64 12 109 20 102
2 -3 5 -29 8 -59z"/>
<path d="M3734 6040 c-12 -4 -25 -17 -29 -27 -10 -23 -16 -266 -8 -362 9 -115
-2 -111 276 -111 221 0 234 1 255 20 12 12 22 28 22 38 1 9 3 97 6 195 6 187
0 228 -37 247 -22 12 -456 12 -485 0z m284 -116 c30 -6 31 -7 29 -63 -2 -68 5
-121 15 -121 4 0 6 41 5 90 l-2 90 32 0 32 0 3 -126 c2 -69 1 -127 -2 -129 -3
-1 -78 -6 -167 -10 l-163 -7 0 120 c0 66 -3 127 -6 136 -5 13 7 16 73 19 43 1
88 4 99 5 12 1 35 -1 52 -4z m39 -106 c-3 -8 -6 -5 -6 6 -1 11 2 17 5 13 3 -3
4 -12 1 -19z"/>
<path d="M4032 5720 c0 -19 2 -27 5 -17 2 9 2 25 0 35 -3 9 -5 1 -5 -18z"/>
<path d="M6771 7065 c-17 -20 -31 -42 -31 -49 0 -24 67 -75 90 -69 23 6 50 51
50 83 0 22 -45 70 -65 70 -7 0 -27 -16 -44 -35z"/>
<path d="M6970 7070 c-43 -43 -7 -116 62 -127 34 -5 39 -3 57 28 27 44 26 70
-2 97 -30 29 -89 30 -117 2z"/>
<path d="M7204 7065 c-24 -24 -24 -26 -9 -62 26 -61 65 -71 109 -27 33 34 33
49 -3 85 -36 36 -64 37 -97 4z"/>
<path d="M7710 6683 c-54 -10 -175 -77 -220 -122 -126 -126 -161 -353 -80
-517 75 -153 282 -257 462 -232 118 16 174 43 249 117 36 36 80 91 97 122 82
144 49 365 -77 510 -85 98 -271 150 -431 122z m20 -262 c0 -105 4 -161 15
-190 13 -37 13 -54 -3 -161 -10 -66 -21 -123 -25 -127 -10 -9 -84 28 -124 61
-18 15 -48 59 -68 98 -31 63 -35 79 -35 148 0 133 48 222 151 283 35 20 69 37
76 37 10 0 13 -35 13 -149z m133 122 c15 -35 49 -64 61 -53 5 5 2 22 -7 39 -9
17 -11 31 -6 31 5 0 9 -5 9 -11 0 -5 5 -7 10 -4 6 4 31 -5 56 -20 90 -53 152
-196 141 -322 -6 -65 -44 -155 -56 -135 -5 8 -15 4 -32 -12 -29 -27 -122 -71
-132 -63 -2 1 -15 -11 -29 -26 -15 -16 -29 -24 -32 -18 -4 6 -7 88 -7 183 0
95 -1 233 -2 305 -1 73 1 133 6 133 4 0 13 -12 20 -27z"/>
<path d="M7938 6523 c7 -3 16 -2 19 1 4 3 -2 6 -13 5 -11 0 -14 -3 -6 -6z"/>
<path d="M5000 5551 c-51 -16 -87 -41 -133 -90 -61 -66 -77 -104 -77 -188 1
-118 54 -204 158 -255 54 -27 78 -33 127 -32 110 1 218 74 276 186 64 122 -9
287 -160 356 -59 27 -146 38 -191 23z m149 -136 c66 -34 112 -125 90 -182 -33
-89 -158 -140 -239 -98 -59 30 -100 112 -86 169 8 32 52 84 91 107 36 23 105
25 144 4z"/>
<path d="M7845 4901 c-54 -25 -114 -86 -139 -141 -46 -102 -10 -237 81 -304
69 -50 133 -63 209 -41 78 22 106 44 147 113 52 85 62 126 47 197 -29 142
-215 236 -345 176z m213 -243 c-5 -70 -31 -101 -100 -119 -37 -10 -48 -9 -73
5 -22 12 -24 15 -7 11 13 -4 22 -2 22 4 0 6 15 11 33 12 17 1 41 4 52 7 20 7
21 12 24 95 1 29 20 33 33 7 5 -8 5 0 2 19 -5 25 -3 32 6 26 8 -5 11 -27 8
-67z m-228 -38 c5 8 8 3 7 -14 -2 -24 -3 -25 -14 -9 -7 9 -12 24 -12 32 1 11
3 10 6 -3 4 -14 7 -16 13 -6z"/>
<path d="M8018 4633 c7 -3 16 -2 19 1 4 3 -2 6 -13 5 -11 0 -14 -3 -6 -6z"/>
<path d="M7498 5094 c-29 -15 -39 -38 -13 -28 8 4 15 10 15 16 0 5 4 7 9 3 5
-3 13 0 16 6 11 17 2 18 -27 3z"/>
<path d="M8901 5054 c0 -11 3 -14 6 -6 3 7 2 16 -1 19 -3 4 -6 -2 -5 -13z"/>
<path d="M5746 5043 c-6 -14 -5 -15 5 -6 7 7 10 15 7 18 -3 3 -9 -2 -12 -12z"/>
<path d="M6960 4890 c0 -5 -18 -10 -40 -10 -33 0 -40 -3 -40 -20 0 -17 -7 -20
-40 -20 -33 0 -40 3 -40 20 0 28 -5 26 -46 -20 -29 -32 -43 -40 -71 -40 -23 0
-32 -4 -27 -12 5 -8 2 -9 -10 -5 -10 4 -15 3 -11 -3 3 -6 23 -10 43 -10 20 0
44 -4 52 -10 9 -5 -14 -7 -65 -5 -79 4 -79 4 -15 -4 77 -9 108 -23 120 -57 6
-14 14 -22 20 -19 5 3 10 1 10 -5 0 -7 18 -10 47 -8 38 2 50 8 60 26 10 18 10
29 1 45 -11 21 -11 21 -19 2 -7 -18 -8 -18 -8 4 -1 14 7 34 16 45 10 12 11 15
3 9 -16 -15 -60 -17 -60 -4 0 17 105 23 148 8 23 -8 39 -11 36 -6 -3 5 0 9 5
9 6 0 11 11 11 25 0 23 -4 25 -40 25 -29 0 -40 4 -40 15 0 11 11 15 40 15 22
0 40 5 40 10 0 6 -18 10 -40 10 -22 0 -40 -4 -40 -10z m-190 -100 c-8 -5 -33
-9 -55 -8 l-40 1 45 7 c25 4 50 8 55 8 6 1 3 -3 -5 -8z"/>
<path d="M6170 4864 c0 -8 5 -12 10 -9 6 4 8 11 5 16 -9 14 -15 11 -15 -7z"/>
<path d="M6113 4854 c-3 -8 -12 -13 -19 -10 -8 3 -11 0 -8 -9 5 -11 11 -12 32
-3 38 17 49 28 21 22 -19 -5 -21 -4 -9 5 11 8 11 11 2 11 -7 0 -15 -7 -19 -16z"/>
<path d="M7336 4861 c-3 -4 6 -6 19 -3 14 2 25 6 25 8 0 8 -39 4 -44 -5z"/>
<path d="M6200 4842 c0 -19 -3 -21 -19 -12 -19 9 -19 9 -4 -21 10 -20 13 -43
9 -67 -5 -24 -4 -32 3 -23 5 7 14 10 20 7 6 -4 11 -2 11 3 0 6 7 11 15 11 8 0
15 5 15 10 0 13 -6 13 -31 0 -20 -11 -28 3 -9 15 6 3 10 14 10 23 0 15 -2 15
-10 2 -8 -12 -10 -11 -10 6 0 11 4 24 10 30 6 6 6 15 0 24 -8 12 -10 10 -10
-8z"/>
<path d="M6233 4827 c1 -22 5 -33 10 -28 6 6 5 20 -1 38 -9 28 -9 27 -9 -10z"/>
<path d="M6005 4820 c-3 -5 -1 -10 4 -10 6 0 11 5 11 10 0 6 -2 10 -4 10 -3 0
-8 -4 -11 -10z"/>
<path d="M6045 4810 c-10 -12 -24 -19 -31 -16 -8 3 -12 -3 -11 -14 1 -16 6
-15 39 12 21 16 38 32 38 34 0 11 -19 2 -35 -16z"/>
<path d="M6320 4810 c0 -5 7 -10 15 -10 8 0 15 5 15 10 0 6 -7 10 -15 10 -8 0
-15 -4 -15 -10z"/>
<path d="M7040 4783 c0 -7 -11 -13 -24 -13 -33 0 -84 -19 -89 -34 -3 -7 -1
-19 4 -27 7 -11 9 -9 9 7 0 38 51 48 144 28 19 -4 26 -3 22 5 -4 6 -15 12 -24
12 -9 1 -3 5 13 9 22 6 25 8 10 10 -17 2 -17 3 5 10 19 6 14 8 -22 7 -32 -1
-48 -6 -48 -14z"/>
<path d="M6944 4781 c5 -8 56 -3 56 5 0 2 -14 4 -31 4 -16 0 -28 -4 -25 -9z"/>
<path d="M6910 4759 c0 -5 5 -7 10 -4 6 3 10 8 10 11 0 2 -4 4 -10 4 -5 0 -10
-5 -10 -11z"/>
<path d="M6481 4742 c0 -7 -5 -10 -11 -7 -5 3 -10 1 -10 -4 0 -6 -7 -11 -15
-11 -20 0 -19 -16 4 -49 16 -23 25 -26 55 -23 36 4 36 4 30 44 -5 29 -3 43 7
49 10 6 11 9 1 9 -7 0 -15 -7 -18 -15 -8 -21 -32 -19 -37 3 -3 9 -5 11 -6 4z"/>
<path d="M5970 4661 c0 -5 7 -12 16 -15 14 -5 15 -4 4 9 -14 17 -20 19 -20 6z"/>
<path d="M6191 4624 c0 -11 3 -14 6 -6 3 7 2 16 -1 19 -3 4 -6 -2 -5 -13z"/>
<path d="M6030 4616 c0 -2 8 -10 18 -17 15 -13 16 -12 3 4 -13 16 -21 21 -21
13z"/>
<path d="M8515 4505 l-30 -14 36 2 c21 1 36 7 36 15 0 14 -3 14 -42 -3z"/>
<path d="M8135 4091 c-3 -5 -1 -12 5 -16 5 -3 10 1 10 9 0 18 -6 21 -15 7z"/>
<path d="M8190 4059 c0 -18 2 -19 15 -9 8 7 15 16 15 21 0 5 -7 9 -15 9 -9 0
-15 -9 -15 -21z"/>
<path d="M8130 4050 c0 -5 5 -10 11 -10 5 0 7 5 4 10 -3 6 -8 10 -11 10 -2 0
-4 -4 -4 -10z"/>
<path d="M8125 4010 c-13 -6 -15 -9 -5 -9 8 0 22 4 30 9 18 12 2 12 -25 0z"/>
<path d="M8160 3979 c0 -14 5 -19 17 -17 26 5 29 38 4 38 -15 0 -21 -6 -21
-21z"/>
<path d="M8240 3976 c0 -16 7 -27 21 -31 30 -10 34 0 12 29 -23 32 -33 33 -33
2z"/>
<path d="M8056 3913 c-4 -37 -12 -73 -18 -80 -6 -8 -7 -13 0 -13 17 0 35 -58
28 -95 -6 -29 -12 -37 -36 -42 -34 -6 -30 -23 6 -23 19 0 24 -5 24 -24 0 -14
-5 -28 -10 -31 -7 -4 -7 -13 0 -26 6 -11 15 -17 21 -14 12 8 12 95 -1 95 -5 0
-10 7 -10 16 0 8 4 12 10 9 6 -3 7 1 4 9 -5 12 0 16 19 16 14 0 27 -7 31 -15
3 -10 -1 -15 -12 -15 -13 -1 -9 -8 16 -30 35 -32 40 -47 18 -52 -12 -2 -11 -8
5 -27 l20 -24 24 23 c14 13 21 26 16 30 -12 7 -18 86 -8 96 4 4 7 2 7 -4 0 -7
6 -12 14 -12 8 0 16 -5 18 -12 3 -8 9 -8 22 -1 16 9 14 11 -12 16 -26 5 -32
12 -37 41 -4 19 -4 43 0 54 7 25 56 37 87 22 22 -11 22 -10 -2 11 l-25 22 24
-8 c16 -5 21 -4 17 4 -4 6 -18 11 -32 11 -21 0 -24 4 -24 40 l0 40 -75 0 c-43
0 -75 -4 -75 -10 0 -5 -7 -10 -15 -10 -11 0 -15 11 -15 40 0 65 -17 46 -24
-27z m184 -52 c0 -5 3 -16 6 -24 8 -22 -28 -32 -43 -11 -7 9 -19 14 -28 11
-10 -5 -15 0 -15 13 0 17 7 20 40 20 22 0 40 -4 40 -9z m-120 -31 c0 -5 -16
-9 -35 -8 -19 1 -35 5 -35 10 0 4 16 8 35 8 19 0 35 -4 35 -10z m79 -19 c9 -6
11 -15 6 -27 -5 -11 -7 -25 -6 -33 2 -11 0 -11 -12 0 -11 10 -12 18 -5 27 7 8
7 17 -2 27 -14 16 -3 20 19 6z m-20 -126 c0 -5 -4 -3 -9 5 -5 8 -9 22 -9 30 0
16 17 -16 18 -35z"/>
<path d="M8218 3833 c7 -3 16 -2 19 1 4 3 -2 6 -13 5 -11 0 -14 -3 -6 -6z"/>
<path d="M8450 3836 c0 -2 7 -9 15 -16 12 -10 15 -10 15 4 0 9 -7 16 -15 16
-8 0 -15 -2 -15 -4z"/>
<path d="M8345 3767 c-14 -16 -7 -47 11 -47 8 0 14 5 14 11 0 5 -5 7 -11 3 -9
-5 -10 1 -5 20 7 29 6 31 -9 13z"/>
<path d="M8400 3720 c0 -5 5 -10 10 -10 6 0 10 5 10 10 0 6 -4 10 -10 10 -5 0
-10 -4 -10 -10z"/>
<path d="M8381 3694 c0 -11 3 -14 6 -6 3 7 2 16 -1 19 -3 4 -6 -2 -5 -13z"/>
<path d="M8320 3640 c0 -5 11 -10 25 -10 14 0 25 5 25 10 0 6 -11 10 -25 10
-14 0 -25 -4 -25 -10z"/>
<path d="M8120 3418 c0 -23 12 -58 19 -58 4 0 5 16 3 35 -4 32 -22 51 -22 23z"/>
<path d="M8072 3385 c0 -16 2 -22 5 -12 2 9 2 23 0 30 -3 6 -5 -1 -5 -18z"/>
<path d="M7982 3388 c-20 -20 -14 -55 11 -62 39 -10 57 -7 51 9 -7 18 7 20 26
3 8 -7 7 -4 -3 8 -9 11 -17 28 -17 37 0 20 -49 24 -68 5z"/>
<path d="M8417 3264 c6 -15 23 -19 23 -5 0 5 -7 11 -14 14 -10 4 -13 1 -9 -9z"/>
<path d="M8405 3230 c3 -5 8 -10 11 -10 2 0 4 5 4 10 0 6 -5 10 -11 10 -5 0
-7 -4 -4 -10z"/>
<path d="M8265 3020 c-10 -11 -16 -22 -14 -24 2 -2 12 7 22 20 22 29 17 32 -8
4z"/>
<path d="M8175 2940 c-3 -5 -1 -10 4 -10 6 0 11 5 11 10 0 6 -2 10 -4 10 -3 0
-8 -4 -11 -10z"/>
<path d="M7338 2853 c7 -3 16 -2 19 1 4 3 -2 6 -13 5 -11 0 -14 -3 -6 -6z"/>
<path d="M7559 2811 c-35 -35 -38 -77 -9 -109 28 -29 62 -28 94 4 36 36 36 85
0 113 -36 28 -50 26 -85 -8z"/>
<path d="M7405 2820 c3 -5 11 -10 16 -10 6 0 7 5 4 10 -3 6 -11 10 -16 10 -6
0 -7 -4 -4 -10z"/>
<path d="M7084 2805 c-12 -8 -25 -11 -29 -7 -5 4 -5 1 -1 -6 4 -7 3 -19 -3
-26 -14 -16 -5 -43 22 -73 26 -29 45 -29 82 1 24 19 30 32 31 65 0 22 -3 38
-7 36 -4 -3 -12 2 -19 10 -16 19 -50 19 -76 0z"/>
<path d="M7297 2805 c-8 -8 -16 -12 -19 -10 -2 2 -5 -10 -6 -28 -2 -23 5 -40
24 -60 21 -23 32 -27 69 -25 24 2 43 5 43 8 -3 14 15 60 23 60 13 0 -10 41
-30 57 -22 17 -87 16 -104 -2z"/>
<path d="M7430 2789 c0 -5 5 -7 10 -4 6 3 10 8 10 11 0 2 -4 4 -10 4 -5 0 -10
-5 -10 -11z"/>
<path d="M7166 2671 c-4 -5 -2 -12 3 -15 5 -4 12 -2 15 3 4 5 2 12 -3 15 -5 4
-12 2 -15 -3z"/>
<path d="M7511 2334 c0 -11 3 -14 6 -6 3 7 2 16 -1 19 -3 4 -6 -2 -5 -13z"/>
<path d="M2080 4922 c-148 -2 -206 -6 -212 -15 -4 -6 -8 -55 -8 -108 l0 -96
-142 -6 c-111 -5 -145 -10 -160 -23 -24 -22 -23 -66 2 -89 17 -15 35 -17 152
-14 l133 4 6 -30 c4 -16 7 -65 8 -107 0 -42 4 -83 7 -92 5 -13 28 -16 143 -17
120 -1 131 -2 91 -12 -33 -8 -39 -12 -22 -15 12 -2 22 -10 22 -18 0 -10 11
-13 40 -12 38 1 70 18 36 18 -9 0 -16 9 -16 20 0 18 6 20 63 19 49 -1 57 -3
37 -10 -21 -7 -20 -8 10 -4 19 2 61 5 93 6 88 4 91 9 95 137 3 72 8 112 15
115 7 2 91 1 187 -3 96 -4 220 -3 275 1 55 5 139 8 188 9 l87 0 0 -114 c0 -81
4 -117 13 -123 11 -7 169 -23 237 -23 113 -1 318 7 328 14 8 5 12 38 12 104 0
152 -9 142 131 142 66 0 119 -3 119 -7 0 -3 -7 -14 -15 -23 -9 -10 -18 -33
-21 -52 -5 -27 -2 -37 11 -42 26 -10 101 28 171 87 74 62 98 101 81 132 -17
29 -93 97 -151 134 -45 28 -103 41 -118 25 -12 -12 13 -69 44 -101 l32 -33
-142 0 -141 0 -3 108 -3 107 -279 3 c-154 1 -283 -1 -288 -6 -4 -4 -9 -54 -10
-110 l-3 -102 -220 -2 c-121 -1 -291 -1 -379 1 l-158 1 -2 100 c-1 64 -5 103
-14 112 -13 13 -50 14 -362 10z m116 -122 l140 0 -4 -167 c-2 -93 -5 -169 -6
-170 -5 -6 -338 -4 -344 2 -9 8 -16 310 -8 332 5 12 15 14 44 9 20 -3 100 -6
178 -6z m1477 -167 c-3 -93 -6 -169 -7 -170 -1 -1 -74 -5 -162 -9 l-161 -7 -6
54 c-4 30 -7 109 -7 177 l0 122 175 0 174 0 -6 -167z"/>
<path d="M2475 4120 c-157 -24 -350 -91 -423 -146 -94 -73 -96 -187 -3 -251
40 -28 41 -29 36 -78 -3 -27 -6 -138 -8 -246 l-2 -197 30 -42 c66 -94 179
-146 345 -158 59 -4 77 -8 60 -13 -22 -6 -20 -7 13 -8 26 -1 37 -6 37 -16 0
-8 -8 -15 -17 -15 -34 0 -63 12 -63 26 0 11 -18 14 -72 14 -40 0 -102 6 -138
14 -61 13 -63 13 -42 -4 11 -10 19 -20 16 -23 -9 -9 97 -39 121 -34 14 2 22 1
20 -4 -8 -11 20 -17 126 -24 55 -4 99 -3 102 2 3 5 -13 10 -36 10 -79 1 -97 3
-97 11 0 10 132 3 143 -7 4 -4 33 -4 65 0 31 4 75 4 97 -1 54 -12 314 -20 320
-9 3 4 -12 5 -32 2 -28 -4 -35 -3 -27 6 9 10 58 17 134 20 20 1 22 3 10 11 -8
5 -26 7 -40 5 -24 -4 -24 -4 3 7 33 14 35 28 5 29 -17 1 -18 3 -6 6 21 5 61
-15 53 -27 -7 -12 16 -25 24 -13 3 6 13 13 21 16 11 4 10 6 -5 7 -11 0 -29 7
-39 15 -20 15 -20 15 0 15 28 0 133 52 179 89 21 18 51 48 65 68 25 36 25 36
23 232 -2 108 -6 216 -11 241 -7 44 -7 45 33 75 49 38 75 86 75 143 0 61 -21
95 -82 132 -73 45 -135 65 -314 100 -147 29 -164 30 -401 29 -137 -1 -270 -5
-298 -9z m565 -125 c139 -18 200 -32 310 -73 57 -21 76 -33 78 -48 4 -28 -11
-38 -93 -64 -119 -37 -222 -50 -440 -57 -274 -8 -465 10 -621 57 -86 26 -134
47 -134 60 0 20 186 87 305 111 152 29 417 36 595 14z m-710 -340 c139 -25
404 -38 630 -31 197 6 247 10 336 31 22 5 31 3 33 -7 1 -7 4 -101 7 -209 l6
-196 -27 -25 c-28 -26 -122 -58 -225 -77 -94 -17 -357 -23 -542 -12 -190 11
-260 28 -318 78 l-30 25 0 217 c0 120 3 221 7 225 4 4 17 4 28 1 11 -3 54 -12
95 -20z m97 -711 c-3 -3 -12 -4 -19 -1 -8 3 -5 6 6 6 11 1 17 -2 13 -5z"/>
<path d="M3080 3879 c25 -4 61 -7 80 -7 32 0 32 1 -10 9 -25 4 -61 7 -80 7
-32 0 -32 -1 10 -9z"/>
<path d="M3199 3607 l-34 -23 -7 -174 c-4 -96 -6 -180 -3 -187 3 -9 14 -9 42
-1 67 18 65 13 59 208 -6 192 -6 200 -16 200 -4 0 -22 -10 -41 -23z"/>
<path d="M3110 3204 l-25 -15 25 7 c28 7 35 12 29 18 -2 2 -15 -2 -29 -10z"/>
<path d="M3125 2920 c-7 -12 2 -12 30 0 19 8 19 9 -2 9 -12 1 -25 -3 -28 -9z"/>
<path d="M2700 2771 c-5 -11 -10 -38 -10 -60 0 -30 5 -43 21 -51 29 -16 74 -3
87 24 11 24 5 73 -11 94 -16 20 -75 15 -87 -7z"/>
<path d="M2945 2765 c-16 -15 -25 -36 -25 -55 0 -25 6 -33 32 -44 54 -23 118
8 118 56 0 27 -45 68 -75 68 -14 0 -37 -11 -50 -25z"/>
<path d="M2550 2760 c-27 -27 -28 -95 -1 -110 24 -12 61 -13 80 -1 21 14 18
101 -5 118 -25 19 -51 16 -74 -7z"/>
<path d="M5020 4314 c-26 -41 -19 -71 24 -99 28 -19 54 -10 80 27 22 30 20 60
-4 86 -33 35 -74 29 -100 -14z"/>
<path d="M5379 4139 c-37 -5 -79 -13 -93 -19 -31 -11 -49 -51 -40 -86 7 -28
24 -39 78 -48 l39 -8 -64 -40 c-89 -56 -309 -252 -594 -529 -424 -411 -694
-666 -805 -759 -68 -58 -147 -126 -175 -151 -87 -80 -153 -126 -246 -176 -101
-53 -149 -99 -149 -142 0 -123 199 -18 576 303 253 215 384 335 739 681 359
349 405 392 525 491 47 39 124 110 171 158 l86 88 56 -56 c72 -73 99 -75 121
-10 20 60 38 196 34 259 l-3 50 -95 1 c-52 1 -125 -2 -161 -7z"/>
<path d="M5135 3324 c-19 -20 -28 -445 -20 -973 6 -326 5 -460 -3 -465 -14 -9
-172 5 -172 15 0 4 15 12 33 18 19 7 46 24 61 40 25 26 27 33 21 76 -6 39 -4
51 15 77 20 27 22 38 17 96 -4 35 -12 71 -19 79 -6 8 -15 63 -19 123 -8 128
-22 178 -53 190 -29 11 -572 25 -619 16 -19 -4 -38 -14 -41 -23 -10 -25 -30
-317 -29 -415 1 -105 14 -146 64 -217 22 -30 39 -57 39 -61 0 -16 -69 -18
-390 -11 -385 9 -416 7 -431 -21 -11 -21 -6 -72 11 -98 8 -13 185 -15 1482
-17 879 -1 1479 2 1488 7 13 8 15 73 12 477 -2 257 -8 485 -13 505 -7 26 -17
39 -32 43 -12 3 -161 4 -332 3 l-310 -3 -5 -447 c-3 -245 -8 -449 -12 -453 -4
-4 -12 -4 -19 0 -9 6 -11 172 -8 721 2 392 1 715 -3 719 -3 4 -163 8 -353 9
-270 2 -350 0 -360 -10z m530 -124 l70 0 1 -190 1 -190 -238 0 c-132 0 -242 0
-246 0 -10 0 -16 291 -8 349 l7 44 171 -6 c95 -4 204 -7 242 -7z m-5 -510 c3
0 1 -4 -5 -8 -6 -4 -9 -66 -7 -159 2 -127 5 -153 18 -153 12 0 12 4 4 20 -8
16 -8 20 4 20 8 0 17 6 20 13 4 6 4 2 2 -10 -2 -13 0 -23 4 -23 5 0 11 33 13
73 l3 72 2 -77 c1 -50 -2 -78 -9 -78 -5 0 -8 -4 -5 -9 6 -8 -441 -22 -456 -14
-5 2 -8 81 -8 175 l0 170 208 -5 c114 -3 209 -6 212 -7z m47 -6 c-3 -3 -12 -4
-19 -1 -8 3 -5 6 6 6 11 1 17 -2 13 -5z m641 -21 l112 -6 0 -170 0 -170 -107
6 c-58 4 -162 7 -230 7 l-123 0 0 163 c0 90 3 167 7 170 8 9 194 9 341 0z
m-1602 -179 l162 -6 -5 -39 c-5 -33 1 -51 41 -119 52 -90 57 -124 21 -158 -20
-20 -25 -34 -27 -95 -2 -57 -6 -71 -18 -69 -35 8 -68 3 -105 -14 -37 -18 -40
-23 -41 -59 0 -31 -4 -40 -17 -39 -9 0 -39 1 -66 2 l-49 2 -6 45 c-8 49 -26
65 -74 65 -19 0 -32 -6 -37 -17 -13 -34 -35 16 -35 79 0 45 -5 63 -20 78 -11
11 -24 20 -29 20 -9 0 -17 16 -31 63 -8 24 -2 35 51 94 32 37 59 76 59 87 0
10 -11 34 -25 52 -14 18 -25 36 -25 39 0 4 26 4 58 1 31 -3 130 -8 218 -12z
m991 -431 l-3 -168 -242 0 -243 0 -3 162 c-2 90 -1 165 2 168 3 3 115 5 248 5
l243 0 -2 -167z m723 -13 l0 -160 -230 0 -230 0 0 160 0 160 230 0 230 0 0
-160z"/>
<path d="M4652 2320 c-70 -43 -77 -136 -16 -190 27 -23 44 -30 77 -30 116 0
158 181 53 225 -48 20 -75 19 -114 -5z"/>
</g>
</svg>
